<svg version="1.0" xmlns="http://www.w3.org/2000/svg" width="20pt" height="20pt" viewBox="0 0 512 512"><g fill="#a1a1a1"><path d="M162.2 1.1c-4.7 1.4-10.9 7.9-12.3 13.1-2.3 8.9 1.2 18.2 8.8 22.9l3.8 2.4 119.1.5 119 .5 7.6 3.7c9.1 4.5 14.7 10.3 19.1 19.6l3.2 6.7.5 159 .5 159 2.4 3.8c1.3 2.1 4.2 5 6.4 6.5 3.4 2.3 5.2 2.7 10.7 2.7 5.5 0 7.3-.4 10.7-2.7 2.2-1.5 5.1-4.4 6.4-6.5l2.4-3.8V228c0-146.8-.1-161-1.7-166.5-4.3-15.7-10.9-27.3-21.3-37.8-6.8-7-18.4-14.8-26.3-17.7C405.6.1 415.1.5 285 .3c-74-.1-120.8.2-122.8.8z"/><path d="M105 82.5c-33.7 6.9-58.7 32.9-63.9 66.5-.9 5.5-1.1 45.2-.9 152 .3 157.5-.1 145.5 5.8 161.2 6.6 17.7 26.1 37.2 43.8 43.8 15.4 5.8 8.2 5.5 125.7 5.5s110.3.3 125.7-5.5c17.8-6.6 37.2-26 43.8-43.8 5.9-15.6 5.5-4.3 5.5-165.7 0-135.1-.1-148.5-1.7-154-4.3-15.7-10.9-27.3-21.3-37.8-6.8-7-18.4-14.8-26.3-17.7-15.5-5.8-7.4-5.5-123.2-5.7-85.1-.1-107.8.1-113 1.2zm222.2 42.2c9.3 4.4 15.1 10 19.6 19.1l3.7 7.6v290.2l-3.7 7.6c-4.5 9.1-10.3 14.7-19.6 19.1l-6.7 3.2h-210l-6.7-3.2c-9.3-4.4-15.1-10-19.6-19.1l-3.7-7.6V151.5l3.2-6.7c1.7-3.7 5-8.7 7.2-11.1 4.4-4.8 13.5-10.1 19.7-11.6 2.3-.5 46.8-.9 106.9-.8l103 .2 6.7 3.2z"/></g></svg>