<?xml version="1.0" standalone="no"?>
<!DOCTYPE svg PUBLIC "-//W3C//DTD SVG 20010904//EN"
 "http://www.w3.org/TR/2001/REC-SVG-20010904/DTD/svg10.dtd">
<svg version="1.0" xmlns="http://www.w3.org/2000/svg"
 width="20pt" height="20pt" viewBox="0 0 512.000000 512.000000"
 preserveAspectRatio="xMidYMid meet">

<g transform="translate(0.000000,512.000000) scale(0.100000,-0.100000)"
fill="#a1a1a1" stroke="none">
<path d="M1622 5109 c-47 -14 -109 -79 -123 -131 -23 -89 12 -182 88 -229 l38
-24 1191 -5 1190 -5 76 -37 c91 -45 147 -103 191 -196 l32 -67 5 -1590 5
-1590 24 -38 c13 -21 42 -50 64 -65 34 -23 52 -27 107 -27 55 0 73 4 107 27
22 15 51 44 64 65 l24 38 0 1605 c0 1468 -1 1610 -17 1665 -43 157 -109 273
-213 378 -68 70 -184 148 -263 177 -156 59 -61 55 -1362 57 -740 1 -1208 -2
-1228 -8z"/>
<path d="M1050 4295 c-337 -69 -587 -329 -639 -665 -9 -55 -11 -452 -9 -1520
3 -1575 -1 -1455 58 -1612 66 -177 261 -372 438 -438 154 -58 82 -55 1257 -55
1175 0 1103 -3 1257 55 178 66 372 260 438 438 59 156 55 43 55 1657 0 1351
-1 1485 -17 1540 -43 157 -109 273 -213 378 -68 70 -184 148 -263 177 -155 58
-74 55 -1232 57 -851 1 -1078 -1 -1130 -12z m2222 -422 c93 -44 151 -100 196
-191 l37 -76 0 -1451 0 -1451 -37 -76 c-45 -91 -103 -147 -196 -191 l-67 -32
-1050 0 -1050 0 -67 32 c-93 44 -151 100 -196 191 l-37 76 0 1450 0 1451 32
67 c17 37 50 87 72 111 44 48 135 101 197 116 23 5 468 9 1069 8 l1030 -2 67
-32z"/>
</g>
</svg>
